<?xml version="1.0" encoding="UTF-8" standalone="no"?>
<!-- Created with Inkscape (http://www.inkscape.org/) -->

<svg
   width="1920mm"
   height="1080mm"
   viewBox="0 0 1920 1080"
   version="1.1"
   id="svg1"
   inkscape:export-filename="bitmap2.png"
   inkscape:export-xdpi="96"
   inkscape:export-ydpi="96"
   sodipodi:docname="cross_wallpaper.svg"
   inkscape:version="1.4.2 (ebf0e940, 2025-05-08)"
   xmlns:inkscape="http://www.inkscape.org/namespaces/inkscape"
   xmlns:sodipodi="http://sodipodi.sourceforge.net/DTD/sodipodi-0.dtd"
   xmlns="http://www.w3.org/2000/svg"
   xmlns:svg="http://www.w3.org/2000/svg">
  <sodipodi:namedview
     id="namedview1"
     pagecolor="#ffffff"
     bordercolor="#000000"
     borderopacity="0.25"
     inkscape:showpageshadow="2"
     inkscape:pageopacity="0.0"
     inkscape:pagecheckerboard="0"
     inkscape:deskcolor="#d1d1d1"
     inkscape:document-units="mm"
     showguides="true"
     inkscape:export-bgcolor="#fffffffc"
     inkscape:zoom="0.16019259"
     inkscape:cx="3305.3964"
     inkscape:cy="2624.9654"
     inkscape:window-width="1616"
     inkscape:window-height="990"
     inkscape:window-x="48"
     inkscape:window-y="16"
     inkscape:window-maximized="0"
     inkscape:current-layer="layer1" />
  <defs
     id="defs1">
    <inkscape:perspective
       sodipodi:type="inkscape:persp3d"
       inkscape:vp_x="0 : 540 : 1"
       inkscape:vp_y="0 : 1000 : 0"
       inkscape:vp_z="1920 : 540 : 1"
       inkscape:persp3d-origin="960 : 360 : 1"
       id="perspective15" />
  </defs>
  <g
     inkscape:label="Layer 1"
     inkscape:groupmode="layer"
     id="layer1">
    <g
       sodipodi:type="inkscape:box3d"
       id="g32"
       style="fill:#000000"
       inkscape:perspectiveID="#perspective15"
       inkscape:corner0="0.35957652 : -0.09894637 : 0 : 1"
       inkscape:corner7="0.30878249 : 0.58250868 : 0.028621928 : 1">
      <path
         sodipodi:type="inkscape:box3dside"
         id="path37"
         style="fill:#e9e9ff;fill-rule:evenodd;stroke:none;stroke-linejoin:round"
         inkscape:box3dsidetype="11"
         d="m 731.13041,740.94129 27.76801,7.63166 v -509.5355 l -27.76801,11.01218 z"
         points="758.89842,748.57295 758.89842,239.03745 731.13041,250.04963 731.13041,740.94129 " />
      <path
         sodipodi:type="inkscape:box3dside"
         id="path32"
         style="fill:#353564;fill-rule:evenodd;stroke:none;stroke-linejoin:round"
         inkscape:box3dsidetype="6"
         d="M 706.10222,745.17152 V 243.94557 l 25.02819,6.10406 v 490.89166 z"
         points="706.10222,243.94557 731.13041,250.04963 731.13041,740.94129 706.10222,745.17152 " />
      <path
         sodipodi:type="inkscape:box3dside"
         id="path33"
         style="fill:#4d4d9f;fill-rule:evenodd;stroke:none;stroke-linejoin:round"
         inkscape:box3dsidetype="5"
         d="m 706.10222,745.17152 27.40392,7.96274 25.39228,-4.56131 -27.76801,-7.63166 z"
         points="733.50614,753.13426 758.89842,748.57295 731.13041,740.94129 706.10222,745.17152 " />
      <path
         sodipodi:type="inkscape:box3dside"
         id="path36"
         style="fill:#afafde;fill-rule:evenodd;stroke:none;stroke-linejoin:round"
         inkscape:box3dsidetype="13"
         d="m 706.10222,243.94557 27.40392,-11.48991 25.39228,6.58179 -27.76801,11.01218 z"
         points="733.50614,232.45566 758.89842,239.03745 731.13041,250.04963 706.10222,243.94557 " />
      <path
         sodipodi:type="inkscape:box3dside"
         id="path34"
         style="fill:#a3a3a3;fill-opacity:1;fill-rule:evenodd;stroke:none;stroke-linejoin:round"
         inkscape:box3dsidetype="3"
         d="m 706.10222,745.17152 27.40392,7.96274 v -520.6786 l -27.40392,11.48991 z"
         points="733.50614,753.13426 733.50614,232.45566 706.10222,243.94557 706.10222,745.17152 " />
      <path
         sodipodi:type="inkscape:box3dside"
         id="path35"
         style="fill:#ebebeb;fill-opacity:1;fill-rule:evenodd;stroke:none;stroke-linejoin:round"
         inkscape:box3dsidetype="14"
         d="m 733.50614,753.13426 v -520.6786 l 25.39228,6.58179 v 509.5355 z"
         points="733.50614,232.45566 758.89842,239.03745 758.89842,748.57295 733.50614,753.13426 " />
    </g>
    <g
       sodipodi:type="inkscape:box3d"
       id="g37"
       style="fill:#000000"
       inkscape:perspectiveID="#perspective15"
       inkscape:corner0="0.71080624 : 0.4857976 : 0 : 1"
       inkscape:corner7="0.62553157 : 0.5393579 : 0.46418754 : 1">
      <path
         sodipodi:type="inkscape:box3dside"
         id="path43"
         style="fill:#e9e9ff;fill-rule:evenodd;stroke:none;stroke-linejoin:round"
         inkscape:box3dsidetype="11"
         d="m 851.14729,399.40302 34.73257,-5.73731 v -25.63038 l -34.73257,6.74219 z"
         points="885.87986,393.66571 885.87986,368.03533 851.14729,374.77752 851.14729,399.40302 " />
      <path
         sodipodi:type="inkscape:box3dside"
         id="path38"
         style="fill:#353564;fill-rule:evenodd;stroke:none;stroke-linejoin:round"
         inkscape:box3dsidetype="6"
         d="m 561.13894,361.25529 v -31.30705 l 290.00835,44.82928 v 24.6255 z"
         points="561.13894,329.94824 851.14729,374.77752 851.14729,399.40302 561.13894,361.25529 " />
      <path
         sodipodi:type="inkscape:box3dside"
         id="path39"
         style="fill:#767676;fill-rule:evenodd;stroke:none;stroke-linejoin:round;fill-opacity:1"
         inkscape:box3dsidetype="5"
         d="m 561.13894,361.25529 29.4371,-9.37687 295.30382,41.78729 -34.73257,5.73731 z"
         points="590.57604,351.87842 885.87986,393.66571 851.14729,399.40302 561.13894,361.25529 " />
      <path
         sodipodi:type="inkscape:box3dside"
         id="path42"
         style="fill:#c7c7c7;fill-opacity:1;fill-rule:evenodd;stroke:none;stroke-linejoin:round"
         inkscape:box3dsidetype="13"
         d="m 561.13894,329.94824 29.4371,-11.01922 295.30382,49.10631 -34.73257,6.74219 z"
         points="590.57604,318.92902 885.87986,368.03533 851.14729,374.77752 561.13894,329.94824 " />
      <path
         sodipodi:type="inkscape:box3dside"
         id="path40"
         style="fill:#a3a3a3;fill-opacity:1;fill-rule:evenodd;stroke:none;stroke-linejoin:round"
         inkscape:box3dsidetype="3"
         d="m 561.13894,361.25529 29.4371,-9.37687 v -32.9494 l -29.4371,11.01922 z"
         points="590.57604,351.87842 590.57604,318.92902 561.13894,329.94824 561.13894,361.25529 " />
      <path
         sodipodi:type="inkscape:box3dside"
         id="path41"
         style="fill:#ebebeb;fill-opacity:1;fill-rule:evenodd;stroke:none;stroke-linejoin:round"
         inkscape:box3dsidetype="14"
         d="m 590.57604,351.87842 v -32.9494 l 295.30382,49.10631 v 25.63038 z"
         points="590.57604,318.92902 885.87986,368.03533 885.87986,393.66571 590.57604,351.87842 " />
    </g>
    <g
       sodipodi:type="inkscape:box3d"
       id="g59"
       style="fill:#ebebeb;fill-opacity:1"
       inkscape:perspectiveID="#perspective15"
       inkscape:corner0="-0.10625528 : -0.1502371 : 0 : 1"
       inkscape:corner7="-0.13952347 : -0.15015731 : 0.25 : 1">
      <path
         sodipodi:type="inkscape:box3dside"
         id="path65"
         style="fill:#e9e9ff;fill-rule:evenodd;stroke:none;stroke-linejoin:round"
         inkscape:box3dsidetype="11"
         d="m 1259.0222,828.73323 37.7184,8.65001 v -0.0719 l -37.7184,-8.64792 z"
         points="1296.7406,837.38324 1296.7406,837.31139 1259.0222,828.66347 1259.0222,828.73323 " />
      <path
         sodipodi:type="inkscape:box3dside"
         id="path60"
         style="fill:#353564;fill-rule:evenodd;stroke:none;stroke-linejoin:round"
         inkscape:box3dsidetype="6"
         d="m 1074.1322,909.49824 v -0.0893 l 184.89,-80.7455 v 0.0698 z"
         points="1074.1322,909.40897 1259.0222,828.66347 1259.0222,828.73323 1074.1322,909.49824 " />
      <path
         sodipodi:type="inkscape:box3dside"
         id="path64"
         style="fill:#c7c7c7"
         inkscape:box3dsidetype="13"
         d="m 1074.1322,909.40897 41.5287,14.28228 181.0797,-86.37986 -37.7184,-8.64792 z"
         points="1115.6609,923.69125 1296.7406,837.31139 1259.0222,828.66347 1074.1322,909.40897 " />
      <path
         sodipodi:type="inkscape:box3dside"
         id="path61"
         style="fill:#767676;fill-opacity:1;fill-rule:evenodd;stroke:none;stroke-linejoin:round"
         inkscape:box3dsidetype="5"
         d="m 1074.1322,909.49824 41.5287,14.28574 181.0797,-86.40074 -37.7184,-8.65001 z"
         points="1115.6609,923.78398 1296.7406,837.38324 1259.0222,828.73323 1074.1322,909.49824 " />
      <path
         sodipodi:type="inkscape:box3dside"
         id="path62"
         style="fill:#a3a3a3"
         inkscape:box3dsidetype="3"
         d="m 1074.1322,909.49824 41.5287,14.28574 v -0.0927 l -41.5287,-14.28228 z"
         points="1115.6609,923.78398 1115.6609,923.69125 1074.1322,909.40897 1074.1322,909.49824 " />
      <path
         sodipodi:type="inkscape:box3dside"
         id="path63"
         style="fill:#ebebeb"
         inkscape:box3dsidetype="14"
         d="m 1115.6609,923.78398 v -0.0927 l 181.0797,-86.37986 v 0.0719 z"
         points="1115.6609,923.69125 1296.7406,837.31139 1296.7406,837.38324 1115.6609,923.78398 " />
    </g>
    <g
       sodipodi:type="inkscape:box3d"
       id="g54"
       style="fill:#ebebeb;fill-opacity:1"
       inkscape:perspectiveID="#perspective15"
       inkscape:corner0="0.31776259 : -0.099512603 : 0 : 1"
       inkscape:corner7="-0.26055103 : -0.099560115 : 0.037642518 : 1">
      <path
         sodipodi:type="inkscape:box3dside"
         id="path59"
         style="fill:#e9e9ff;fill-rule:evenodd;stroke:none;stroke-linejoin:round"
         inkscape:box3dsidetype="11"
         d="m 761.59786,746.22072 566.78324,153.47001 v 0.0611 L 761.59786,746.25577 Z"
         points="1328.3811,899.69073 1328.3811,899.75187 761.59786,746.25577 761.59786,746.22072 " />
      <path
         sodipodi:type="inkscape:box3dside"
         id="path54"
         style="fill:#353564;fill-rule:evenodd;stroke:none;stroke-linejoin:round"
         inkscape:box3dsidetype="6"
         d="m 728.50755,752.11151 v 0.0361 l 33.09031,-5.8918 v -0.035 z"
         points="728.50755,752.14757 761.59786,746.25577 761.59786,746.22072 728.50755,752.11151 " />
      <path
         sodipodi:type="inkscape:box3dside"
         id="path58"
         style="fill:#c7c7c7"
         inkscape:box3dsidetype="13"
         d="M 728.50755,752.14757 1298.264,918.06546 1328.3811,899.75187 761.59786,746.25577 Z"
         points="1298.264,918.06546 1328.3811,899.75187 761.59786,746.25577 728.50755,752.14757 " />
      <path
         sodipodi:type="inkscape:box3dside"
         id="path55"
         style="fill:#767676;fill-opacity:1;fill-rule:evenodd;stroke:none;stroke-linejoin:round"
         inkscape:box3dsidetype="5"
         d="M 728.50755,752.11151 1298.264,918.00121 1328.3811,899.69073 761.59786,746.22072 Z"
         points="1298.264,918.00121 1328.3811,899.69073 761.59786,746.22072 728.50755,752.11151 " />
      <path
         sodipodi:type="inkscape:box3dside"
         id="path57"
         style="fill:#ebebeb"
         inkscape:box3dsidetype="14"
         d="m 1298.264,918.00121 v 0.0643 l 30.1171,-18.31359 v -0.0611 z"
         points="1298.264,918.06546 1328.3811,899.75187 1328.3811,899.69073 1298.264,918.00121 " />
      <path
         sodipodi:type="inkscape:box3dside"
         id="path56"
         style="fill:#a3a3a3"
         inkscape:box3dsidetype="3"
         d="m 728.50755,752.11151 569.75645,165.8897 v 0.0643 L 728.50755,752.14757 Z"
         points="1298.264,918.00121 1298.264,918.06546 728.50755,752.14757 728.50755,752.11151 " />
    </g>
  </g>
</svg>
